<svg xmlns="http://www.w3.org/2000/svg" version="1.1" xmlns:xlink="http://www.w3.org/1999/xlink" xmlns:svgjs="http://svgjs.dev/svgjs" width="1000" height="623" viewBox="0 0 1000 623"><g transform="matrix(1,0,0,1,-0.6060606060606233,0.2522267206477409)"><svg viewBox="0 0 396 247" data-background-color="#0023ff" preserveAspectRatio="xMidYMid meet" height="623" width="1000" xmlns="http://www.w3.org/2000/svg" xmlns:xlink="http://www.w3.org/1999/xlink"><g id="tight-bounds" transform="matrix(1,0,0,1,0.2400000000000091,-0.09999999999999432)"><svg viewBox="0 0 395.52 247.2" height="247.2" width="395.52"><g><svg></svg></g><g><svg viewBox="0 0 395.52 247.2" height="247.2" width="395.52"><g transform="matrix(1,0,0,1,75.54432,112.32148590903635)"><svg viewBox="0 0 244.43135999999998 22.557028181927272" height="22.557028181927272" width="244.43135999999998"><g><svg viewBox="0 0 244.43135999999998 22.557028181927272" height="22.557028181927272" width="244.43135999999998"><g><svg viewBox="0 0 244.43135999999998 22.557028181927272" height="22.557028181927272" width="244.43135999999998"><g><svg viewBox="0 0 244.43135999999998 22.557028181927272" height="22.557028181927272" width="244.43135999999998"><g><svg viewBox="0 0 244.43135999999998 22.557028181927272" height="22.557028181927272" width="244.43135999999998" id="textblock"><g><svg viewBox="0 0 244.43135999999998 22.557028181927272" height="22.557028181927272" width="244.43135999999998"><g transform="matrix(1,0,0,1,0,0)"><svg width="244.43135999999998" viewBox="1.7000000476837158 -38.150001525878906 416.6099853515625 38.45000076293945" height="22.557028181927272" data-palette-color="#1ebbd7"><path d="M5.8 0L1.7 0 14.3-36.8 19.4-36.8 32 0 27.9 0 24.2-10.5 9.4-10.5 5.8 0ZM16.85-33.3L10.4-14.1 23.2-14.1 16.85-33.3ZM41.45 0L37.5 0 37.5-26.7 40.6-26.7 41.45-23.75Q43.35-25.1 45.9-26.13 48.45-27.15 51.2-27.15L51.2-27.15Q54.15-27.15 55.95-25.9 57.75-24.65 58.6-22.6 59.45-20.55 59.45-18.15L59.45-18.15 59.45 0 55.5 0 55.5-17.7Q55.5-19.4 54.82-20.73 54.15-22.05 52.92-22.8 51.7-23.55 49.9-23.55L49.9-23.55Q48.25-23.55 46.82-23.23 45.4-22.9 44.12-22.33 42.85-21.75 41.45-20.95L41.45-20.95 41.45 0ZM75.55 0.3L75.55 0.3Q72.25 0.3 70.12-1.13 68-2.55 66.97-5.53 65.95-8.5 65.95-13.15L65.95-13.15Q65.95-18.1 66.95-21.18 67.95-24.25 70.15-25.65 72.35-27.05 76.05-27.05L76.05-27.05Q78.3-27.05 80.45-26.55 82.6-26.05 84.25-25.45L84.25-25.45 84.25-38.15 88.2-38.15 88.2 0 85 0 84.25-2.7Q83.5-2.05 82.02-1.35 80.55-0.65 78.82-0.18 77.1 0.3 75.55 0.3ZM76.7-2.95L76.7-2.95Q79-2.95 80.87-3.68 82.75-4.4 84.25-5.2L84.25-5.2 84.25-22.65Q82.45-23.2 80.8-23.58 79.15-23.95 77.1-23.95L77.1-23.95Q74.55-23.95 72.95-23 71.35-22.05 70.62-19.73 69.9-17.4 69.9-13.3L69.9-13.3Q69.9-9.6 70.57-7.3 71.25-5 72.75-3.98 74.25-2.95 76.7-2.95ZM99.59 0L95.64 0 95.64-26.7 98.64-26.7 99.59-22.05Q101.39-24.2 103.62-25.6 105.84-27 108.74-27L108.74-27Q109.44-27 110.07-26.95 110.69-26.9 111.24-26.75L111.24-26.75 111.24-22.7Q110.59-22.8 109.84-22.88 109.09-22.95 108.34-22.95L108.34-22.95Q106.49-22.95 105.04-22.5 103.59-22.05 102.29-21.15 100.99-20.25 99.59-18.95L99.59-18.95 99.59 0ZM126.44 0.3L126.44 0.3Q122.24 0.3 119.82-0.95 117.39-2.2 116.34-5.2 115.29-8.2 115.29-13.4L115.29-13.4Q115.29-18.7 116.37-21.68 117.44-24.65 119.89-25.85 122.34-27.05 126.49-27.05L126.49-27.05Q130.04-27.05 132.27-26.25 134.49-25.45 135.57-23.53 136.64-21.6 136.64-18.2L136.64-18.2Q136.64-15.85 135.72-14.43 134.79-13 133.07-12.38 131.34-11.75 128.99-11.75L128.99-11.75 119.24-11.75Q119.29-8.5 119.94-6.53 120.59-4.55 122.32-3.68 124.04-2.8 127.39-2.8L127.39-2.8 135.99-2.8 135.99-0.4Q133.69-0.1 131.49 0.1 129.29 0.3 126.44 0.3ZM119.19-14.35L119.19-14.35 128.69-14.35Q130.94-14.35 132.02-15.18 133.09-16 133.09-18.15L133.09-18.15Q133.09-20.45 132.42-21.73 131.74-23 130.32-23.53 128.89-24.05 126.49-24.05L126.49-24.05Q123.69-24.05 122.09-23.23 120.49-22.4 119.84-20.3 119.19-18.2 119.19-14.35ZM152.49 0.3L152.49 0.3Q151.49 0.3 150.04 0.25 148.59 0.2 147.01 0.1 145.44 0 144.16-0.13 142.89-0.25 142.19-0.4L142.19-0.4 142.19-2.8 153.14-2.8Q154.79-2.8 155.99-3.05 157.19-3.3 157.86-4.15 158.54-5 158.54-6.7L158.54-6.7 158.54-7.9Q158.54-9.65 157.39-10.63 156.24-11.6 153.69-11.6L153.69-11.6 149.94-11.6Q147.59-11.6 145.76-12.2 143.94-12.8 142.94-14.25 141.94-15.7 141.94-18.25L141.94-18.25 141.94-19.65Q141.94-22.15 142.91-23.75 143.89-25.35 145.96-26.15 148.04-26.95 151.34-26.95L151.34-26.95Q152.74-26.95 154.56-26.85 156.39-26.75 158.14-26.58 159.89-26.4 160.99-26.2L160.99-26.2 160.99-23.8 150.69-23.8Q148.14-23.8 146.76-22.95 145.39-22.1 145.39-19.65L145.39-19.65 145.39-18.55Q145.39-17 146.04-16.23 146.69-15.45 147.86-15.2 149.04-14.95 150.59-14.95L150.59-14.95 154.39-14.95Q158.04-14.95 160.04-13.25 162.04-11.55 162.04-8.35L162.04-8.35 162.04-6.5Q162.04-3.8 160.81-2.33 159.59-0.85 157.46-0.28 155.34 0.3 152.49 0.3ZM185.83 0L181.83 0 181.83-29.4Q181.83-31.55 182.46-32.98 183.08-34.4 184.13-35.23 185.18-36.05 186.48-36.43 187.78-36.8 189.08-36.8L189.08-36.8Q191.28-36.75 193.86-36.7 196.43-36.65 199.16-36.58 201.88-36.5 204.48-36.3L204.48-36.3 204.48-33.15 190.03-33.15Q188.03-33.15 186.93-32.05 185.83-30.95 185.83-28.8L185.83-28.8 185.83-19.25 202.28-19 202.28-15.95 185.83-15.7 185.83 0ZM226.53 0L222.68 0 226.88-36.8 230.93-36.8 240.73-5 250.33-36.8 254.43-36.8 258.73 0 254.88 0 251.18-32.25 251.83-32.15 242.53 0 238.88 0 229.33-32.1 230.08-32.2 226.53 0ZM270.08 0.3L270.08 0.3Q267.13 0.3 265.23-1.45 263.33-3.2 263.33-6.4L263.33-6.4 263.33-8.3Q263.33-11.45 265.4-13.4 267.48-15.35 271.68-15.35L271.68-15.35 280.73-15.35 280.73-18.65Q280.73-20.3 280.15-21.48 279.58-22.65 278.1-23.3 276.63-23.95 273.83-23.95L273.83-23.95 265.53-23.95 265.53-26.3Q267.28-26.6 269.6-26.85 271.93-27.1 275.08-27.1L275.08-27.1Q278.33-27.15 280.48-26.3 282.63-25.45 283.65-23.63 284.68-21.8 284.68-18.85L284.68-18.85 284.68 0 281.63 0 280.88-3.05Q280.68-2.85 279.65-2.35 278.63-1.85 277.05-1.23 275.48-0.6 273.65-0.15 271.83 0.3 270.08 0.3ZM271.73-2.65L271.73-2.65Q272.63-2.6 273.78-2.85 274.93-3.1 276.13-3.43 277.33-3.75 278.35-4.1 279.38-4.45 280.03-4.7 280.68-4.95 280.73-4.95L280.73-4.95 280.73-13.35 272.58-13Q269.73-12.9 268.5-11.6 267.28-10.3 267.28-8.25L267.28-8.25 267.28-7.05Q267.28-5.45 267.95-4.48 268.63-3.5 269.65-3.1 270.68-2.7 271.73-2.65ZM296.07 0L292.12 0 292.12-26.7 295.12-26.7 296.07-22.05Q297.87-24.2 300.1-25.6 302.32-27 305.22-27L305.22-27Q305.92-27 306.55-26.95 307.17-26.9 307.72-26.75L307.72-26.75 307.72-22.7Q307.07-22.8 306.32-22.88 305.57-22.95 304.82-22.95L304.82-22.95Q302.97-22.95 301.52-22.5 300.07-22.05 298.77-21.15 297.47-20.25 296.07-18.95L296.07-18.95 296.07 0ZM325.72 0L322.07 0Q319.47 0 317.77-0.85 316.07-1.7 315.27-3.6 314.47-5.5 314.52-8.65L314.52-8.65 314.67-23.45 310.42-23.45 310.42-26 314.72-26.7 315.37-34.15 318.42-34.15 318.42-26.7 326.12-26.7 326.12-23.45 318.42-23.45 318.42-8.65Q318.42-6.9 318.8-5.85 319.17-4.8 319.8-4.25 320.42-3.7 321.12-3.48 321.82-3.25 322.47-3.2L322.47-3.2 325.72-2.9 325.72 0ZM334.97-31.45L332.17-31.45Q331.37-31.45 331.37-32.25L331.37-32.25 331.37-36.15Q331.37-36.95 332.17-36.95L332.17-36.95 334.97-36.95Q335.37-36.95 335.54-36.73 335.72-36.5 335.72-36.15L335.72-36.15 335.72-32.25Q335.72-31.45 334.97-31.45L334.97-31.45ZM335.52 0L331.57 0 331.57-26.7 335.52-26.7 335.52 0ZM347.07 0L343.12 0 343.12-26.7 346.22-26.7 347.07-23.75Q348.97-25.1 351.52-26.13 354.07-27.15 356.82-27.15L356.82-27.15Q359.77-27.15 361.57-25.9 363.37-24.65 364.22-22.6 365.07-20.55 365.07-18.15L365.07-18.15 365.07 0 361.12 0 361.12-17.7Q361.12-19.4 360.44-20.73 359.77-22.05 358.54-22.8 357.32-23.55 355.52-23.55L355.52-23.55Q353.87-23.55 352.44-23.23 351.02-22.9 349.74-22.33 348.47-21.75 347.07-20.95L347.07-20.95 347.07 0ZM382.71 0.3L382.71 0.3Q378.51 0.3 376.09-0.95 373.66-2.2 372.61-5.2 371.56-8.2 371.56-13.4L371.56-13.4Q371.56-18.7 372.64-21.68 373.71-24.65 376.16-25.85 378.61-27.05 382.76-27.05L382.76-27.05Q386.31-27.05 388.54-26.25 390.76-25.45 391.84-23.53 392.91-21.6 392.91-18.2L392.91-18.2Q392.91-15.85 391.99-14.43 391.06-13 389.34-12.38 387.61-11.75 385.26-11.75L385.26-11.75 375.51-11.75Q375.56-8.5 376.21-6.53 376.86-4.55 378.59-3.68 380.31-2.8 383.66-2.8L383.66-2.8 392.26-2.8 392.26-0.4Q389.96-0.1 387.76 0.1 385.56 0.3 382.71 0.3ZM375.46-14.35L375.46-14.35 384.96-14.35Q387.21-14.35 388.29-15.18 389.36-16 389.36-18.15L389.36-18.15Q389.36-20.45 388.69-21.73 388.01-23 386.59-23.53 385.16-24.05 382.76-24.05L382.76-24.05Q379.96-24.05 378.36-23.23 376.76-22.4 376.11-20.3 375.46-18.2 375.46-14.35ZM418.31 0L398.31 0 398.31-3 413.71-23.45 397.91-23.45 397.91-26.7 418.31-26.7 418.31-23.7 402.86-3.25 418.31-3.25 418.31 0Z" opacity="1" transform="matrix(1,0,0,1,0,0)" fill="#1ebbd7" class="undefined-text-0" data-fill-palette-color="primary" id="text-0"></path></svg></g></svg></g></svg></g></svg></g></svg></g></svg></g></svg></g><g><path d="M0 123.6c0-68.262 55.338-123.6 123.6-123.6 63.549 0 115.897 47.96 122.823 109.659l-1.024 0c-6.921-61.136-58.812-108.642-121.799-108.642-67.701 0-122.583 54.882-122.583 122.583 0 67.701 54.882 122.583 122.583 122.583 62.987 0 114.878-47.506 121.799-108.642l1.024 0c-6.926 61.699-59.273 109.659-122.823 109.659-68.262 0-123.6-55.338-123.6-123.6z" fill="#1ebbd7" stroke="transparent" data-fill-palette-color="tertiary"></path></g></svg></g><defs></defs></svg><rect width="395.52" height="247.2" fill="none" stroke="none" visibility="hidden"></rect></g></svg></g></svg>